<?xml version="1.0" encoding="UTF-8" standalone="no"?>
<svg xmlns="http://www.w3.org/2000/svg" xmlns:xlink="http://www.w3.org/1999/xlink" width="193.920mm" height="17.413mm" viewBox="141.712708 -273.066467 193.919678 17.412781">
    <path transform="matrix(1,0,0,-1,0,0)" style="stroke:none;fill:#000000;fill-rule:evenodd" d="M237.842331,268.140747C238.61644,268.168091,239.241592,267.820801,239.241592,267.363403C239.241592,266.908752,239.677872,266.536682,240.211136,266.536682C240.7444,266.536682,241.025833,266.286194,240.836594,265.97998C240.647324,265.673767,240.922867,265.258057,241.448868,265.056274C241.974838,264.85437,258.974121,264.617981,279.224976,264.530884C299.475769,264.443787,323.460693,264.222717,332.524658,264.039734C342.272644,263.842957,328.554565,263.648132,298.942749,263.562744C246.437515,263.411377,240.485397,263.226379,240.485397,261.745911C240.485397,261.262085,240.203537,261.040466,239.859085,261.253357C239.514633,261.466248,239.064896,261.202942,238.859726,260.668152C238.654526,260.133423,237.974594,259.695923,237.34877,259.695923C236.529129,259.695923,236.143478,259.130737,235.969742,257.674805L235.7285,255.653687L235.230698,257.674805C234.776474,259.519043,234.228928,259.995056,232.833939,259.758484C232.152145,259.642822,230.535141,261.317383,230.535141,262.139038C230.535141,262.546753,228.724777,262.835571,225.871017,262.883118C223.305725,262.925842,220.927002,263.030762,220.584961,263.116333C220.242935,263.201843,200.163742,263.359497,175.964523,263.466797C137.721954,263.636292,134.528687,263.716858,151.555466,264.082947C162.329681,264.314636,183.738144,264.545532,199.129852,264.59613C226.472168,264.685852,230.255081,264.858582,229.55864,265.985474C229.371262,266.288635,229.794205,266.536682,230.498459,266.536682C231.217545,266.536682,231.778946,266.942444,231.778946,267.462158C231.778946,268.044434,232.282974,268.332703,233.138046,268.239502C234.246078,268.118774,234.616379,268.550903,235.142563,270.578918L235.78801,273.066467L236.115555,270.578918C236.390518,268.490601,236.667618,268.099304,237.842331,268.140747z"/>
</svg>
