<?xml version="1.0" encoding="UTF-8" standalone="no"?>
<svg xmlns="http://www.w3.org/2000/svg" xmlns:xlink="http://www.w3.org/1999/xlink" width="291.481mm" height="23.384mm" viewBox="24.987192 -81.506470 291.481018 23.384056">
    <path transform="matrix(1,0,0,-1,24.987122,315.287201)" style="stroke:#000000;stroke-width:0.050000mm;fill:none" d="M16.485916,396.653534C16.631416,396.64563,16.750458,395.766174,16.750458,394.699158L16.750458,392.759125L12.181511,392.759125C7.016273,392.759125,6.156677,392.508606,5.01339,390.670349C4.311073,389.541077,4.228397,388.943756,4.228397,384.998962C4.228397,381.250488,4.328743,380.441742,4.898067,379.601746C6.108707,377.815491,7.701942,377.353668,12.076729,377.520813L13.928581,377.591553L13.928581,379.884338L13.928581,382.177094L11.45945,382.177094L8.990311,382.177094L8.990311,384.469849L8.990311,386.762634L13.399483,386.762634L17.808662,386.762634L17.808662,380.237061L17.808662,373.711487L16.838646,373.69458C11.223686,373.596863,6.539646,373.765869,5.499546,374.10376C3.597401,374.721649,1.845985,376.261597,0.868191,378.175934C0.050102,379.777588,-0.00412,380.225891,0.00029,385.351685C0.005383,391.278015,0.213928,392.109863,2.240448,394.287109C4.288956,396.488007,8.040119,397.111145,16.485916,396.653534z"/>
    <path transform="matrix(1,0,0,-1,24.987122,315.287201)" style="stroke:#000000;stroke-width:0.050000mm;fill:none" d="M128.243301,396.639191C128.828293,396.639191,128.919922,396.376465,128.919922,394.699158L128.919922,392.759125L125.128021,392.757141C118.046356,392.753479,117.526901,392.279846,117.337967,385.653961C117.232895,381.969696,117.317032,380.970459,117.821915,379.906525C118.759445,377.930786,119.769516,377.591553,124.714462,377.591553L129.009674,377.591553L128.839462,375.820129C128.74585,374.845825,128.554855,373.934296,128.415039,373.794495C128.275223,373.654663,126.069687,373.539093,123.513901,373.537659C118.40744,373.534851,117.126297,373.91864,115.093811,376.06012C113.343689,377.904083,113.046875,379.200256,113.046875,384.998962C113.046875,390.865112,113.263,391.775513,115.171509,393.949188C116.988144,396.018188,118.030411,396.398376,122.570694,396.648163C124.801743,396.770935,126.838531,396.819153,127.096909,396.75528C127.35527,396.691406,127.87114,396.639191,128.243301,396.639191z"/>
    <path transform="matrix(1,0,0,-1,24.987122,315.287201)" style="stroke:#000000;stroke-width:0.050000mm;fill:none" d="M67.473244,394.645203L67.578667,392.827576L62.648331,392.705139C57.257149,392.57132,56.279831,392.23468,55.263184,390.161255C54.467834,388.539154,54.31176,383.333862,54.988655,381.005432C55.821815,378.139465,56.79863,377.594604,61.106773,377.592834L64.369568,377.591553L64.369568,379.884338L64.369568,382.177094L61.900436,382.177094L59.43129,382.177094L59.43129,384.469849L59.43129,386.762634L63.840469,386.762634L68.249649,386.762634L68.249649,380.456329L68.249649,374.150024L66.926888,373.839142C66.199371,373.668152,63.461273,373.609192,60.842224,373.708069C56.426811,373.874756,55.957832,373.959839,54.396935,374.87735C51.7789,376.41626,50.931175,378.000397,50.536148,382.091949C49.716263,390.583984,51.415291,394.821838,56.236092,396.309326C56.73243,396.462463,59.440109,396.559662,62.253166,396.525299L67.367813,396.46283L67.473244,394.645203z"/>
    <path transform="matrix(1,0,0,-1,24.987122,315.287201)" style="stroke:#000000;stroke-width:0.050000mm;fill:none" d="M148.496658,395.726288C150.483749,394.688995,152.059967,392.486969,152.572037,390.032776C153.218079,386.936462,152.832108,379.870972,151.919998,378.096924C150.991776,376.291565,149.581207,374.980652,147.627594,374.107788C145.278137,373.058044,139.281433,373.221191,137.034439,374.395996C133.558716,376.213226,132.444794,378.69873,132.451447,384.62207C132.461624,393.692322,135.349091,396.74292,143.734756,396.542786C146.336334,396.480713,147.401245,396.298096,148.496658,395.726288z"/>
    <path transform="matrix(1,0,0,-1,24.987122,315.287201)" style="stroke:#000000;stroke-width:0.050000mm;fill:none" d="M140.372742,392.402344C139.066833,392.000671,137.807816,390.871582,137.363922,389.704041C137.181793,389.225037,137.033051,387.057739,137.03334,384.887817C137.033981,380.27652,137.539368,378.837067,139.501938,377.856628C141.358154,376.929352,144.720291,377.022461,146.234772,378.04303C148.064011,379.275787,148.30928,380.087585,148.315094,384.928284C148.320786,389.681732,148.009308,390.777466,146.341705,391.870117C145.236954,392.593964,141.948837,392.887177,140.372742,392.402344z"/>
    <path transform="matrix(1,0,0,-1,24.987122,315.287201)" style="stroke:#000000;stroke-width:0.050000mm;fill:none" d="M27.685226,386.938995L27.685226,377.591553L32.447136,377.591553L37.209038,377.591553L37.209038,375.651489L37.209038,373.711487L30.330719,373.711487L23.452408,373.711487L23.452408,384.998962L23.452408,396.286438L25.56881,396.286438L27.685226,396.286438L27.685226,386.938995z"/>
    <path transform="matrix(1,0,0,-1,24.987122,315.287201)" style="stroke:#000000;stroke-width:0.050000mm;fill:none" d="M45.67466,384.998962L45.67466,373.711487L43.381882,373.711487L41.089119,373.711487L41.089119,384.998962L41.089119,396.286438L43.381882,396.286438L45.67466,396.286438L45.67466,384.998962z"/>
    <path transform="matrix(1,0,0,-1,24.987122,315.287201)" style="stroke:#000000;stroke-width:0.050000mm;fill:none" d="M77.132355,392.526093C76.959229,386.711823,76.595215,387.115356,82.013,387.115356L86.591812,387.115356L86.591812,391.700928L86.591812,396.286438L88.708221,396.286438L90.824631,396.286438L90.824631,384.998962L90.824631,373.711487L88.708221,373.711487L86.591812,373.711487L86.591812,378.296997L86.591812,382.882568L81.851501,382.882568L77.11116,382.882568L77.116364,378.385193L77.121552,373.887817L74.978378,373.782837L72.835182,373.677795L72.835182,384.982117L72.835182,396.286438L75.03978,396.287231L77.244354,396.287964L77.132355,392.526093z"/>
    <path transform="matrix(1,0,0,-1,24.987122,315.287201)" style="stroke:#000000;stroke-width:0.050000mm;fill:none" d="M110.931015,394.434601L110.931549,392.582764L107.844589,392.582764L104.757614,392.582764L104.663681,383.147095L104.569733,373.711487L102.464844,373.711487L100.35997,373.711487L100.266022,383.147095L100.172089,392.582764L97.085114,392.582764L93.998169,392.582764L93.998703,394.434601L93.999237,396.286438L102.464844,396.286438L110.930481,396.286438L110.931015,394.434601z"/>
    <path transform="matrix(1,0,0,-1,24.987122,315.287201)" style="stroke:#000000;stroke-width:0.050000mm;fill:none" d="M171.745392,395.580994C173.606339,394.621765,174.179626,393.430298,174.350967,390.165833C174.445816,388.358521,174.338837,386.69574,174.076553,385.901031C173.557251,384.327515,171.981995,382.638977,170.743362,382.328064C170.244904,382.202972,169.837067,382.023315,169.837067,381.928833C169.837067,381.725433,173.237946,376.76178,174.608215,374.965271L175.56456,373.711487L173.021896,373.711487C170.121109,373.711487,170.241501,373.623047,167.49826,377.767914C165.025009,381.504822,164.662582,381.824341,162.897263,381.824341L161.371445,381.824341L161.371445,377.767914L161.371445,373.711487L159.078674,373.711487L156.785919,373.711487L156.785919,385.019531L156.785919,396.327576L163.752411,396.218811C169.085358,396.135559,170.95961,395.986023,171.745392,395.580994z"/>
    <path transform="matrix(1,0,0,-1,24.987122,315.287201)" style="stroke:#000000;stroke-width:0.050000mm;fill:none" d="M161.445892,389.319946L161.547821,386.233521L164.986313,386.132568C166.880676,386.076965,168.729233,386.19458,169.102692,386.394409C169.948532,386.847107,170.682007,388.980774,170.390732,390.141296C169.907761,392.065674,169.10611,392.406372,165.061432,392.406372L161.343979,392.406372L161.445892,389.319946z"/>
    <path transform="matrix(1,0,0,-1,24.987122,315.287201)" style="stroke:#000000;stroke-width:0.050000mm;fill:none" d="M195.233932,394.331238L195.233932,392.375977L189.501999,392.425629L183.770065,392.47525L183.667053,389.795319L183.564041,387.115356L188.517151,387.115356L193.470261,387.115356L193.470261,385.351685L193.470261,383.588013L188.531982,383.588013L183.593704,383.588013L183.593704,380.589783L183.593704,377.591553L189.413818,377.591553L195.233932,377.591553L195.233932,375.651489L195.233932,373.711487L187.297424,373.711487L179.360901,373.711487L179.360901,384.998962L179.360901,396.286438L187.297424,396.286438L195.233932,396.286438L195.233932,394.331238z"/>
    <path transform="matrix(1,0,0,-1,24.987122,315.287201)" style="stroke:#000000;stroke-width:0.050000mm;fill:none" d="M212.477768,395.655945C212.663376,395.309143,214.162704,391.4599,215.809708,387.102112C217.456619,382.744324,219.280594,377.948669,219.862961,376.44516L220.921829,373.711487L218.551376,373.711487L216.180923,373.711487L215.257675,376.44516L214.334457,379.178864L209.588211,379.276733L204.841965,379.374573L203.835892,376.54303L202.829819,373.711487L200.619186,373.711487C199.40332,373.711487,198.408554,373.794495,198.408554,373.895996C198.408554,373.997437,199.541351,377.053009,200.925858,380.686096C202.31041,384.319214,203.977493,388.720306,204.630539,390.46637C205.283585,392.212402,206.079666,394.236206,206.399582,394.963684L206.981308,396.286438L209.560837,396.286438C211.677139,396.286438,212.200943,396.173218,212.477768,395.655945z"/>
    <path transform="matrix(1,0,0,-1,24.987122,315.287201)" style="stroke:#000000;stroke-width:0.050000mm;fill:none" d="M209.174088,390.730896C207.879501,387.464844,206.615402,383.611633,206.783371,383.443634C207.20311,383.023926,212.517899,383.219238,212.517899,383.654419C212.517899,384.401978,209.960861,391.348206,209.685654,391.348206C209.538864,391.348206,209.30867,391.070435,209.174088,390.730896z"/>
    <path transform="matrix(1,0,0,-1,24.987122,315.287201)" style="stroke:#000000;stroke-width:0.050000mm;fill:none" d="M228.038223,388.0448C228.038223,380.433807,228.090347,379.736786,228.719681,378.936707C229.936661,377.389587,233.257523,376.802673,235.497879,377.73877C238.072281,378.814453,238.078995,378.840027,238.197403,388.033478L238.303726,396.286438L240.424728,396.286438L242.545761,396.286438L242.43486,387.732666C242.329391,379.600616,242.283676,379.100159,241.50737,377.582642C239.994186,374.624756,236.519669,373.141846,231.844437,373.458557C228.524368,373.683472,226.590103,374.643188,225.055649,376.827026L223.981766,378.355286L223.805405,387.321289L223.629044,396.287292L225.833633,396.286865L228.038223,396.286438L228.038223,388.0448z"/>
    <path transform="matrix(1,0,0,-1,24.987122,315.287201)" style="stroke:#000000;stroke-width:0.050000mm;fill:none" d="M262.456543,395.617981C264.485291,394.696564,265.075439,393.284882,265.074768,389.354828C265.074341,387.08728,264.905457,385.897766,264.457458,385.005981C263.909973,383.916321,262.247498,382.469055,261.106201,382.088623C260.723572,381.96109,261.564026,380.626831,265.216553,375.563324L266.552429,373.711487L263.948242,373.711487L261.344055,373.711487L258.508301,377.856079L255.672531,382.000732L253.848312,382.107361L252.024155,382.213959L252.024155,377.962708L252.024155,373.711487L249.9077,373.711487L247.791306,373.711487L247.791306,384.998962L247.791306,396.286438L254.405075,396.278687C260.07782,396.272095,261.22345,396.17804,262.456543,395.617981z"/>
    <path transform="matrix(1,0,0,-1,24.987122,315.287201)" style="stroke:#000000;stroke-width:0.050000mm;fill:none" d="M252.024155,389.23175L252.024155,386.057159L255.878586,386.057159C259.662659,386.057159,259.74707,386.07489,260.49884,387.027161C261.110962,387.802582,261.232849,388.331024,261.106445,389.66098C260.856506,392.290405,260.642334,392.406372,256.037415,392.406372L252.024155,392.406372L252.024155,389.23175z"/>
    <path transform="matrix(1,0,0,-1,24.987122,315.287201)" style="stroke:#000000;stroke-width:0.050000mm;fill:none" d="M283.963867,393.729126C284.492371,392.322632,285.950989,388.473389,287.2052,385.175323C288.459412,381.877258,289.93457,377.948669,290.483337,376.44516L291.481079,373.711487L289.285095,373.711487L287.08905,373.711487L286.062988,376.533325L285.036865,379.355225L280.231812,379.355225L275.426697,379.355225L274.444336,376.533325L273.462036,373.711487L271.385071,373.711487C270.242737,373.711487,269.308105,373.865417,269.308105,374.053589C269.308105,374.24176,270.666199,378.011597,272.326172,382.43103C273.986084,386.850464,275.832642,391.775879,276.429688,393.376404L277.515137,396.286438L280.259094,396.286438L283.003052,396.286438L283.963867,393.729126z"/>
    <path transform="matrix(1,0,0,-1,24.987122,315.287201)" style="stroke:#000000;stroke-width:0.050000mm;fill:none" d="M279.929565,390.608185C279.011047,388.365906,277.420959,383.923218,277.420959,383.599426C277.420959,383.377625,278.593079,383.235291,280.419189,383.235291C282.078491,383.235291,283.417419,383.38501,283.417419,383.570526C283.417419,384.14032,280.93512,390.796967,280.596313,391.135803C280.405212,391.326904,280.137024,391.114685,279.929565,390.608185z"/>
</svg>
