<?xml version="1.0" encoding="UTF-8" standalone="no"?>
<svg xmlns="http://www.w3.org/2000/svg" xmlns:xlink="http://www.w3.org/1999/xlink" width="243.718mm" height="19.552mm" viewBox="24.987375 -81.506500 243.717941 19.552292">
    <path transform="matrix(1,0,0,-1,0,0)" style="stroke:none;fill:#000000;fill-rule:evenodd" d="M38.771622,81.389313C38.89328,81.38269,38.992813,80.647339,38.992813,79.755188L38.992813,78.133057L35.172546,78.133057C30.853701,78.133057,30.13496,77.923584,29.179014,76.386536C28.591782,75.442322,28.522654,74.942871,28.522654,71.64447C28.522654,68.510254,28.606556,67.834015,29.08259,67.131653C30.094851,65.638123,31.427013,65.251953,35.084938,65.391724L36.633339,65.450867L36.633339,67.36795L36.633339,69.285004L34.568806,69.285004L32.504265,69.285004L32.504265,71.202057L32.504265,73.119141L36.190941,73.119141L39.877617,73.119141L39.877617,67.662872L39.877617,62.206604L39.066551,62.192474C34.371674,62.110748,30.455173,62.252075,29.585508,62.534607C27.995054,63.051239,26.53063,64.338837,25.71306,65.939484C25.029026,67.278687,24.983688,67.653534,24.987375,71.939392C24.991634,76.894623,25.166006,77.590179,26.860455,79.410645C28.573288,81.250885,31.709776,81.771942,38.771622,81.389313z"/>
    <path transform="matrix(1,0,0,-1,0,0)" style="stroke:none;fill:#000000;fill-rule:evenodd" d="M132.216125,81.377319C132.705261,81.377319,132.781876,81.157623,132.781876,79.755188L132.781876,78.133057L129.611328,78.131378C123.690094,78.128326,123.255753,77.7323,123.097778,72.192139C123.009918,69.111603,123.080276,68.276093,123.502426,67.386505C124.286331,65.734528,125.13089,65.450867,129.265533,65.450867L132.856918,65.450867L132.7146,63.969727C132.636337,63.15506,132.476639,62.392914,132.359726,62.276001C132.242828,62.159088,130.398697,62.062469,128.261703,62.061249C123.992004,62.058899,122.920792,62.379822,121.221359,64.17038C119.758011,65.712189,119.509842,66.795959,119.509842,71.64447C119.509842,76.549377,119.690552,77.310608,121.286316,79.128113C122.805283,80.858063,123.676758,81.175964,127.473053,81.384827C129.338516,81.487457,131.04155,81.527771,131.257584,81.474365C131.473618,81.420959,131.904953,81.377319,132.216125,81.377319z"/>
    <path transform="matrix(1,0,0,-1,0,0)" style="stroke:none;fill:#000000;fill-rule:evenodd" d="M81.404022,79.710052L81.492172,78.190277L77.369736,78.087891C72.861969,77.976013,72.0448,77.69455,71.19474,75.960876C70.529716,74.604553,70.399216,70.252228,70.965195,68.305328C71.661835,65.908997,72.478577,65.45343,76.08078,65.451935L78.808929,65.450867L78.808929,67.36795L78.808929,69.285004L76.744392,69.285004L74.679848,69.285004L74.679848,71.202057L74.679848,73.119141L78.366531,73.119141L82.053207,73.119141L82.053207,67.846222L82.053207,62.573273L80.947197,62.313354C80.338898,62.17038,78.049469,62.121063,75.859581,62.203735C72.167694,62.343109,71.775558,62.414246,70.470436,63.181427C68.281403,64.46817,67.572586,65.792725,67.242287,69.213806C66.556747,76.314331,67.977371,79.857758,72.008224,81.101501C72.423233,81.229553,74.687225,81.310822,77.039322,81.282074L81.315872,81.229858L81.404022,79.710052z"/>
    <path transform="matrix(1,0,0,-1,0,0)" style="stroke:none;fill:#000000;fill-rule:evenodd" d="M149.150711,80.613983C150.812195,79.746674,152.130127,77.905487,152.558289,75.853455C153.09848,73.264496,152.775742,67.356781,152.013107,65.873444C151.236984,64.363892,150.057556,63.267792,148.424057,62.537964C146.459595,61.660248,141.445526,61.796661,139.566727,62.778961C136.660553,64.298401,135.729156,66.376617,135.734726,71.329346C135.743225,78.91333,138.157547,81.46405,145.169113,81.296692C147.344391,81.244812,148.234802,81.092102,149.150711,80.613983zM142.358002,77.834717C141.266098,77.498871,140.213379,76.55481,139.842224,75.578583C139.689941,75.17807,139.565567,73.365906,139.565811,71.551544C139.566345,67.695862,139.988922,66.492279,141.629898,65.672516C143.181946,64.897186,145.993164,64.975037,147.259476,65.828369C148.788971,66.859131,148.994049,67.537903,148.998901,71.585388C149.003662,75.559906,148.743225,76.476105,147.348877,77.389709C146.425156,77.994934,143.675842,78.240112,142.358002,77.834717z"/>
    <path transform="matrix(1,0,0,-1,0,0)" style="stroke:none;fill:#000000;fill-rule:evenodd" d="M48.13578,73.266602L48.13578,65.450867L52.117393,65.450867L56.098995,65.450867L56.098995,63.828705L56.098995,62.206604L50.347778,62.206604L44.596565,62.206604L44.596565,71.64447L44.596565,81.082367L46.366165,81.082367L48.13578,81.082367L48.13578,73.266602z"/>
    <path transform="matrix(1,0,0,-1,0,0)" style="stroke:none;fill:#000000;fill-rule:evenodd" d="M63.177418,71.64447L63.177418,62.206604L61.260338,62.206604L59.343277,62.206604L59.343277,71.64447L59.343277,81.082367L61.260338,81.082367L63.177418,81.082367L63.177418,71.64447z"/>
    <path transform="matrix(1,0,0,-1,0,0)" style="stroke:none;fill:#000000;fill-rule:evenodd" d="M89.480362,77.938202C89.335617,73.07666,89.03125,73.414063,93.561264,73.414063L97.389771,73.414063L97.389771,77.24823L97.389771,81.082367L99.159378,81.082367L100.928986,81.082367L100.928986,71.64447L100.928986,62.206604L99.159378,62.206604L97.389771,62.206604L97.389771,66.04071L97.389771,69.874878L93.426224,69.874878L89.462646,69.874878L89.466995,66.114471L89.471329,62.354034L87.679352,62.266266L85.887344,62.178436L85.887344,71.630402L85.887344,81.082367L87.730682,81.083038L89.57402,81.083649L89.480362,77.938202z"/>
    <path transform="matrix(1,0,0,-1,0,0)" style="stroke:none;fill:#000000;fill-rule:evenodd" d="M117.740692,79.533966L117.741135,77.985565L115.160004,77.985565L112.578873,77.985565L112.500336,70.096069L112.421783,62.206604L110.661804,62.206604L108.90184,62.206604L108.823288,70.096069L108.744751,77.985565L106.163605,77.985565L103.582504,77.985565L103.582947,79.533966L103.583389,81.082367L110.661804,81.082367L117.740234,81.082367L117.740692,79.533966z"/>
    <path transform="matrix(1,0,0,-1,0,0)" style="stroke:none;fill:#000000;fill-rule:evenodd" d="M168.589859,80.492523C170.145859,79.69046,170.625214,78.694244,170.768478,75.964691C170.847778,74.453522,170.758331,73.063232,170.539032,72.398743C170.104813,71.083069,168.787689,69.671204,167.752014,69.411255C167.335236,69.306641,166.994232,69.156433,166.994232,69.077423C166.994232,68.907349,169.83783,64.75708,170.983566,63.254944L171.783203,62.206604L169.657181,62.206604C167.231735,62.206604,167.332397,62.13266,165.038666,65.598328C162.970688,68.7229,162.667648,68.990051,161.191605,68.990051L159.915817,68.990051L159.915817,65.598328L159.915817,62.206604L157.998734,62.206604L156.08168,62.206604L156.08168,71.661682L156.08168,81.11676L161.906631,81.025818C166.365707,80.956207,167.932831,80.831177,168.589859,80.492523zM159.978058,75.257416L160.063278,72.676727L162.938339,72.592346C164.522278,72.545837,166.067932,72.644196,166.380188,72.811279C167.087433,73.189789,167.700714,74.973816,167.457169,75.944183C167.053345,77.553223,166.383057,77.838104,163.001144,77.838104L159.892853,77.838104L159.978058,75.257416z"/>
    <path transform="matrix(1,0,0,-1,0,0)" style="stroke:none;fill:#000000;fill-rule:evenodd" d="M188.229492,79.44754L188.229492,77.812683L183.436813,77.854187L178.644135,77.895691L178.557999,75.654907L178.471863,73.414063L182.613342,73.414063L186.754822,73.414063L186.754822,71.939392L186.754822,70.464722L182.625748,70.464722L178.496674,70.464722L178.496674,67.957794L178.496674,65.450867L183.363083,65.450867L188.229492,65.450867L188.229492,63.828705L188.229492,62.206604L181.593491,62.206604L174.957458,62.206604L174.957458,71.64447L174.957458,81.082367L181.593491,81.082367L188.229492,81.082367L188.229492,79.44754z"/>
    <path transform="matrix(1,0,0,-1,0,0)" style="stroke:none;fill:#000000;fill-rule:evenodd" d="M202.647705,80.555176C202.802902,80.265198,204.056549,77.046722,205.43367,73.403015C206.810715,69.759308,208.3358,65.749481,208.822739,64.49234L209.708099,62.206604L207.726074,62.206604L205.744049,62.206604L204.972092,64.49234L204.200165,66.778076L200.231644,66.859924L196.263138,66.941711L195.421921,64.574158L194.580704,62.206604L192.732315,62.206604C191.715683,62.206604,190.883911,62.276001,190.883911,62.36087C190.883911,62.445709,191.831085,65.00058,192.988724,68.03833C194.146408,71.076111,195.540314,74.756042,196.086349,76.215973C196.632385,77.675903,197.298019,79.368073,197.565506,79.976349L198.05191,81.082367L200.208755,81.082367C201.978271,81.082367,202.416245,80.987701,202.647705,80.555176zM199.885376,76.437164C198.802933,73.706299,197.745972,70.484497,197.886414,70.344025C198.237366,69.993073,202.681259,70.156403,202.681259,70.520264C202.681259,71.145325,200.543228,76.953308,200.313126,76.953308C200.190384,76.953308,199.99791,76.721069,199.885376,76.437164z"/>
    <path transform="matrix(1,0,0,-1,0,0)" style="stroke:none;fill:#000000;fill-rule:evenodd" d="M215.658386,74.191223C215.658386,67.827393,215.701965,67.244568,216.22818,66.575592C217.245743,65.282013,220.02243,64.79126,221.895676,65.573975C224.048233,66.473389,224.053848,66.494751,224.152847,74.181763L224.24176,81.082367L226.015198,81.082367L227.788681,81.082367L227.695953,73.930237C227.607758,67.130737,227.569534,66.71228,226.920441,65.44342C225.655212,62.970215,222.750046,61.730316,218.840897,61.995117C216.064865,62.183167,214.447556,62.985626,213.164551,64.811615L212.266632,66.089447L212.119171,73.586273L211.97171,81.083069L213.815048,81.082703L215.658386,81.082367L215.658386,74.191223z"/>
    <path transform="matrix(1,0,0,-1,0,0)" style="stroke:none;fill:#000000;fill-rule:evenodd" d="M244.436829,80.523438C246.133133,79.753021,246.626587,78.572632,246.626022,75.286591C246.625656,73.390594,246.484451,72.395996,246.109863,71.65036C245.6521,70.739258,244.262039,69.529144,243.307755,69.211029C242.987823,69.104401,243.690552,67.98877,246.744568,63.755005L247.861542,62.206604L245.684097,62.206604L243.506638,62.206604L241.135559,65.672058L238.764465,69.137543L237.239166,69.226715L235.713913,69.315826L235.713913,65.7612L235.713913,62.206604L233.944275,62.206604L232.174667,62.206604L232.174667,71.64447L232.174667,81.082367L237.704697,81.075867C242.447891,81.070374,243.405792,80.99173,244.436829,80.523438zM235.713913,75.183685L235.713913,72.529266L238.936752,72.529266C242.100754,72.529266,242.171341,72.544098,242.799911,73.340332C243.311737,73.988678,243.413651,74.430542,243.307953,75.542572C243.098969,77.741119,242.919891,77.838104,239.06955,77.838104L235.713913,77.838104L235.713913,75.183685z"/>
    <path transform="matrix(1,0,0,-1,0,0)" style="stroke:none;fill:#000000;fill-rule:evenodd" d="M262.419891,78.944092C262.861786,77.768066,264.08139,74.549591,265.130096,71.791931C266.178772,69.034302,267.412231,65.749481,267.871063,64.49234L268.705322,62.206604L266.869171,62.206604L265.032959,62.206604L264.175049,64.56604L263.317078,66.925537L259.299377,66.925537L255.281647,66.925537L254.460266,64.56604L253.638931,62.206604L251.902298,62.206604C250.947159,62.206604,250.165665,62.335297,250.165665,62.492645C250.165665,62.649994,251.301224,65.802094,252.689194,69.497345C254.077103,73.192596,255.621078,77.310913,256.12027,78.64917L257.027863,81.082367L259.322205,81.082367L261.616516,81.082367L262.419891,78.944092zM259.046661,76.334564C258.278656,74.459717,256.949127,70.745026,256.949127,70.474274C256.949127,70.288818,257.929169,70.1698,259.456055,70.1698C260.843445,70.1698,261.962982,70.294983,261.962982,70.450104C261.962982,70.926544,259.887451,76.492401,259.604156,76.775726C259.444366,76.935516,259.220123,76.758057,259.046661,76.334564z"/>
</svg>
