<?xml version="1.0" encoding="UTF-8" standalone="no"?>
<svg xmlns="http://www.w3.org/2000/svg" xmlns:xlink="http://www.w3.org/1999/xlink" width="267.875mm" height="18.025mm" viewBox="64.063004 -255.012451 267.874512 18.024902">
    <path transform="matrix(1,0,0,-1,0,0)" style="stroke:none;fill:currentcolor;fill-rule:evenodd" d="M102.838394,240.012451L87.838394,240.012451L87.838394,255.012451L84.838394,255.012451L84.838394,236.987549L102.838394,236.987549L102.838394,240.012451z"/>
    <path transform="matrix(1,0,0,-1,0,0)" style="stroke:none;fill:currentcolor;fill-rule:evenodd" d="M287.589844,237.015381C289.262756,237.246323,290.509277,238.673782,290.512695,240.362549L290.512695,254.987549L287.487793,254.987549L287.487793,240.462158C287.487915,240.338379,287.437103,240.219955,287.347229,240.134857C287.257324,240.049759,287.136292,240.005493,287.012695,240.012451L275.962891,240.012451C275.843262,240.011276,275.728333,240.058533,275.643677,240.143097C275.559021,240.227646,275.511597,240.342499,275.512695,240.462158L275.512695,254.987549L272.512695,254.987549L272.512695,240.362549C272.506226,239.465469,272.85968,238.60321,273.494019,237.968857C274.128357,237.334503,274.990631,236.981079,275.887695,236.987549L287.137695,236.987549L287.589844,237.015381z"/>
    <path transform="matrix(1,0,0,-1,0,0)" style="stroke:none;fill:currentcolor;fill-rule:evenodd" d="M79.14064,237.015381L79.572769,237.099854C81.040375,237.506653,82.057755,238.839615,82.063004,240.362549L82.063004,247.012451L74.888199,247.012451L74.888199,243.987549L79.038101,243.987549L79.038101,240.462158C79.038475,240.338287,78.987732,240.219742,78.897781,240.134583C78.807823,240.049438,78.686661,240.00528,78.563004,240.012451L67.513199,240.012451C67.393585,240.011459,67.278671,240.058655,67.194016,240.143188C67.10936,240.227707,67.061996,240.342545,67.063004,240.462158L67.063004,251.512451C67.062088,251.632065,67.109451,251.746887,67.194077,251.831421C67.278717,251.91597,67.393585,251.963226,67.513199,251.962158L78.563004,251.962158C78.686653,251.969315,78.807808,251.92514,78.897758,251.839996C78.987717,251.754852,79.038475,251.636307,79.038101,251.512451L79.038101,250.387451L82.063004,250.387451L82.063004,251.612549C82.061501,253.476257,80.551704,254.986038,78.688004,254.987549L67.438004,254.987549C66.541031,254.993637,65.67894,254.640152,65.044678,254.005875C64.410416,253.371613,64.056915,252.509521,64.063004,251.612549L64.063004,240.362549C64.056686,239.4655,64.410095,238.603271,65.044418,237.968948C65.678741,237.334625,66.540955,236.981201,67.438004,236.987549L78.688004,236.987549L79.14064,237.015381z"/>
    <path transform="matrix(1,0,0,-1,0,0)" style="stroke:none;fill:currentcolor;fill-rule:evenodd" d="M107.063004,254.987549L104.087906,254.987549L104.087906,236.987549L107.063004,236.987549L107.063004,254.987549z"/>
    <path transform="matrix(1,0,0,-1,0,0)" style="stroke:none;fill:currentcolor;fill-rule:evenodd" d="M124.715347,237.015381L125.147476,237.099854C126.615265,237.50647,127.632889,238.839493,127.638199,240.362549L127.638199,247.012451L120.462906,247.012451L120.462906,243.987549L124.613297,243.987549L124.613297,240.462158C124.613396,240.338379,124.562592,240.219971,124.472694,240.134872C124.382805,240.049774,124.261787,240.005524,124.138199,240.012451L113.087906,240.012451C112.9683,240.01123,112.853401,240.058472,112.768829,240.143066C112.684258,240.227646,112.637032,240.342545,112.638199,240.462158L112.638199,251.512451C112.637001,251.632065,112.68425,251.746948,112.768829,251.831528C112.853409,251.916107,112.9683,251.963348,113.087906,251.962158L124.138199,251.962158C124.261787,251.96907,124.382805,251.92482,124.472702,251.839737C124.562599,251.754639,124.613419,251.63623,124.613297,251.512451L124.613297,250.387451L127.638199,250.387451L127.638199,251.612549C127.636566,253.476181,126.126831,254.985916,124.263199,254.987549L113.013199,254.987549C112.116158,254.993881,111.253929,254.640457,110.619606,254.006134C109.985291,253.371826,109.631866,252.509598,109.638199,251.612549L109.638199,240.362549C109.631615,239.465424,109.98497,238.603073,110.619339,237.968689C111.253716,237.33432,112.116081,236.980972,113.013199,236.987549L124.263199,236.987549L124.715347,237.015381z"/>
    <path transform="matrix(1,0,0,-1,0,0)" style="stroke:none;fill:currentcolor;fill-rule:evenodd" d="M316.9375,243.162354L328.912598,243.162354L328.912598,236.987549L331.9375,236.987549L331.9375,251.612549C331.935913,253.476212,330.426178,254.985962,328.5625,254.987549L317.3125,254.987549C316.415527,254.993652,315.553436,254.640167,314.919189,254.00589C314.284912,253.371613,313.931396,252.509521,313.9375,251.612549L313.9375,236.987549L316.9375,236.987549L316.9375,243.162354zM316.9375,246.162354L316.9375,251.512451C316.936554,251.63208,316.983948,251.746918,317.068573,251.831451C317.153198,251.916,317.268097,251.963257,317.387695,251.962158L328.4375,251.962158C328.561157,251.969208,328.68219,251.924957,328.772095,251.839844C328.86203,251.754715,328.912872,251.636276,328.912598,251.512451L328.912598,246.162354L316.9375,246.162354z"/>
    <path transform="matrix(1,0,0,-1,0,0)" style="stroke:none;fill:currentcolor;fill-rule:evenodd" d="M133.413101,244.462158L145.813004,244.462158L145.813004,236.987549L148.813004,236.987549L148.813004,254.987549L145.813004,254.987549L145.813004,247.512451L133.413101,247.512451L133.413101,254.987549L130.413101,254.987549L130.413101,236.987549L133.413101,236.987549L133.413101,244.462158z"/>
    <path transform="matrix(1,0,0,-1,0,0)" style="stroke:none;fill:currentcolor;fill-rule:evenodd" d="M161.288101,251.962158L168.762711,251.962158L168.762711,254.987549L150.763199,254.987549L150.763199,251.962158L158.263199,251.962158L158.263199,236.987549L161.288101,236.987549L161.288101,251.962158z"/>
    <path transform="matrix(1,0,0,-1,0,0)" style="stroke:none;fill:currentcolor;fill-rule:evenodd" d="M188.587906,240.012451L174.538101,240.012451C174.299042,239.99614,174.063797,240.081329,173.891953,240.248322C173.720123,240.415314,173.628235,240.648026,173.637711,240.887451L173.637711,251.087158C173.62825,251.326584,173.720123,251.559296,173.891968,251.726288C174.063797,251.89328,174.299042,251.97847,174.538101,251.962158L188.587906,251.962158L188.587906,254.987549L174.012711,254.987549C173.115738,254.993637,172.253647,254.640152,171.619385,254.005875C170.985107,253.371613,170.631622,252.509521,170.637711,251.612549L170.637711,240.362549C170.631378,239.4655,170.984802,238.603287,171.619125,237.968964C172.253448,237.334641,173.115662,236.981216,174.012711,236.987549L188.587906,236.987549L188.587906,240.012451z"/>
    <path transform="matrix(1,0,0,-1,0,0)" style="stroke:none;fill:currentcolor;fill-rule:evenodd" d="M206.215347,237.015381C207.888107,237.24649,209.134354,238.673904,209.137711,240.362549L209.137711,251.612549C209.1362,253.476242,207.626404,254.986038,205.762711,254.987549L194.512711,254.987549C193.615738,254.993637,192.753647,254.640152,192.119385,254.005875C191.485107,253.371613,191.131622,252.509521,191.137711,251.612549L191.137711,240.362549C191.131378,239.4655,191.484802,238.603287,192.119125,237.968964C192.753448,237.334641,193.615662,236.981216,194.512711,236.987549L205.762711,236.987549L206.215347,237.015381zM194.587906,240.012451C194.468292,240.011398,194.353424,240.058655,194.268784,240.143188C194.184158,240.227722,194.13678,240.342545,194.137711,240.462158L194.137711,251.512451C194.13678,251.632065,194.184158,251.746887,194.268784,251.831421C194.353424,251.91597,194.468292,251.963211,194.587906,251.962158L205.637711,251.962158C205.761368,251.969315,205.882523,251.925156,205.972473,251.839996C206.062424,251.754852,206.113174,251.636307,206.112808,251.512451L206.112808,240.462158C206.113174,240.338303,206.062424,240.219757,205.972473,240.134613C205.882523,240.049454,205.761368,240.005295,205.637711,240.012451L194.587906,240.012451z"/>
    <path transform="matrix(1,0,0,-1,0,0)" style="stroke:none;fill:currentcolor;fill-rule:evenodd" d="M249.087906,240.012451L235.587906,240.012451L235.587906,244.462158L246.462906,244.462158L246.462906,247.512451L235.587906,247.512451L235.587906,251.962158L249.087906,251.962158L249.087906,254.987549L232.563004,254.987549L232.563004,236.987549L249.087906,236.987549L249.087906,240.012451z"/>
    <path transform="matrix(1,0,0,-1,0,0)" style="stroke:none;fill:currentcolor;fill-rule:evenodd" d="M254.712906,243.162354L266.687988,243.162354L266.687988,236.987549L269.712891,236.987549L269.712891,251.612549C269.711273,253.476181,268.201538,254.985916,266.337891,254.987549L255.087906,254.987549C254.190857,254.993881,253.328644,254.640457,252.694305,254.006134C252.059998,253.371811,251.706573,252.509598,251.712906,251.612549L251.712906,236.987549L254.712906,236.987549L254.712906,243.162354zM254.712906,246.162354L254.712906,251.512451C254.711716,251.632065,254.758957,251.746948,254.843536,251.831528C254.928116,251.916107,255.042999,251.963348,255.162613,251.962158L266.212891,251.962158C266.336487,251.96907,266.45752,251.92482,266.547424,251.839737C266.637299,251.754639,266.68811,251.63623,266.687988,251.512451L266.687988,246.162354L254.712906,246.162354z"/>
    <path transform="matrix(1,0,0,-1,0,0)" style="stroke:none;fill:currentcolor;fill-rule:evenodd" d="M214.887711,243.262451L221.173843,243.276123L226.438004,236.987549L229.813004,236.987549L229.813004,237.687256L225.093277,243.284424L226.512711,243.287354C228.366928,243.288452,229.872879,244.783295,229.887711,246.637451L229.887711,251.587158C229.883713,252.632385,229.394272,253.616135,228.563004,254.249756C227.982346,254.716782,227.257843,254.968521,226.512711,254.962158L211.887711,254.962158L211.887711,236.987549L214.887711,236.987549L214.887711,243.262451zM215.337906,246.312256L215.252945,246.320068C215.039307,246.358063,214.884567,246.545486,214.887711,246.762451L214.887711,251.512451C214.896851,251.757339,215.093002,251.953293,215.337906,251.962158L226.387711,251.962158C226.642242,251.966599,226.853271,251.76683,226.862808,251.512451L226.862808,246.762451C226.863251,246.638519,226.812561,246.519867,226.722595,246.434631C226.632645,246.34938,226.511429,246.305145,226.387711,246.312256L215.337906,246.312256z"/>
    <path transform="matrix(1,0,0,-1,0,0)" style="stroke:none;fill:currentcolor;fill-rule:evenodd" d="M296.262695,243.262451L302.54834,243.276123L307.8125,236.987549L311.1875,236.987549L311.1875,237.687256L306.468262,243.284424L307.887695,243.287354C309.741882,243.288574,311.247742,244.783356,311.262695,246.637451L311.262695,251.587158C311.258759,252.632492,310.769104,253.616333,309.9375,254.249756C309.356995,254.716721,308.63269,254.968445,307.887695,254.962158L293.262695,254.962158L293.262695,236.987549L296.262695,236.987549L296.262695,243.262451zM296.712891,246.312256L296.627441,246.320068C296.413818,246.35791,296.259094,246.545502,296.262695,246.762451L296.262695,251.512451C296.271698,251.757431,296.467926,251.953445,296.712891,251.962158L307.762695,251.962158C308.017029,251.96611,308.227783,251.766617,308.237793,251.512451L308.237793,246.762451C308.238007,246.638596,308.187256,246.520081,308.097351,246.434891C308.007446,246.349686,307.886383,246.305374,307.762695,246.312256L296.712891,246.312256z"/>
</svg>
