<?xml version="1.0" encoding="UTF-8" standalone="no"?>
<svg xmlns="http://www.w3.org/2000/svg" xmlns:xlink="http://www.w3.org/1999/xlink" width="291.481mm" height="40.542mm" viewBox="52.138168 -198.396713 291.480591 40.542496">
    <path transform="matrix(1,0,0,-1,0,0)" style="stroke:none;fill:#000000;fill-rule:evenodd" d="M68.623993,198.256561C68.769493,198.248672,68.888535,197.369217,68.888535,196.302185L68.888535,194.362152L64.319595,194.362152C59.154366,194.362152,58.294769,194.111649,57.151482,192.273361C56.449169,191.144119,56.366493,190.546799,56.366493,186.602005C56.366493,182.853516,56.466839,182.044785,57.03616,181.204803C58.246799,179.418564,59.840031,178.956726,64.214813,179.123856L66.066666,179.194595L66.066666,181.487366L66.066666,183.780136L63.597534,183.780136L61.128399,183.780136L61.128399,186.072906L61.128399,188.365677L65.537567,188.365677L69.946739,188.365677L69.946739,181.840103L69.946739,175.314529L68.976723,175.297653C63.361771,175.199921,58.677738,175.368927,57.637638,175.706818C55.735497,176.324707,53.984081,177.86467,53.00629,179.778992C52.188202,181.380646,52.13398,181.828949,52.13839,186.954742C52.143482,192.881042,52.352028,193.712891,54.378544,195.890152C56.427052,198.091034,60.178207,198.714172,68.623993,198.256561z"/>
    <path transform="matrix(1,0,0,-1,0,0)" style="stroke:none;fill:#000000;fill-rule:evenodd" d="M180.381226,198.242218C180.966217,198.242218,181.057846,197.979492,181.057846,196.302185L181.057846,194.362152L177.265961,194.360184C170.184296,194.356506,169.664841,193.882858,169.475906,187.257004C169.370834,183.572739,169.454971,182.573486,169.959854,181.509567C170.897385,179.533844,171.907455,179.194595,176.852402,179.194595L181.147598,179.194595L180.977386,177.423187C180.883774,176.448883,180.69278,175.537354,180.552963,175.397537C180.413147,175.257706,178.207626,175.142151,175.65184,175.140732C170.54538,175.137909,169.264236,175.521698,167.231766,177.663177C165.481644,179.507141,165.18483,180.803299,165.18483,186.602005C165.18483,192.468124,165.400955,193.378525,167.309464,195.552216C169.126083,197.621216,170.16835,198.001389,174.708633,198.25119C176.939682,198.373947,178.976471,198.422165,179.234848,198.358307C179.49321,198.294449,180.009079,198.242218,180.381226,198.242218z"/>
    <path transform="matrix(1,0,0,-1,0,0)" style="stroke:none;fill:#000000;fill-rule:evenodd" d="M119.611252,196.248215L119.716675,194.430588L114.786346,194.308167C109.395172,194.174347,108.417854,193.837692,107.401215,191.764282C106.605865,190.142197,106.449791,184.936905,107.126686,182.608459C107.959839,179.742508,108.936653,179.197662,113.244797,179.195908L116.507584,179.194595L116.507584,181.487366L116.507584,183.780136L114.038452,183.780136L111.569313,183.780136L111.569313,186.072906L111.569313,188.365677L115.978485,188.365677L120.387657,188.365677L120.387657,182.059372L120.387657,175.753082L119.064903,175.4422C118.337387,175.271225,115.599289,175.212234,112.980247,175.311111C108.564835,175.477814,108.095856,175.562897,106.534966,176.480408C103.916931,178.019318,103.069206,179.603455,102.674179,183.694992C101.854294,192.186996,103.553322,196.424881,108.374115,197.912369C108.870453,198.065506,111.578133,198.162689,114.391182,198.128326L119.505821,198.065857L119.611252,196.248215z"/>
    <path transform="matrix(1,0,0,-1,0,0)" style="stroke:none;fill:#000000;fill-rule:evenodd" d="M200.634567,197.329315C202.621658,196.292023,204.197861,194.089996,204.70993,191.635818C205.355972,188.539505,204.970001,181.474014,204.057892,179.699966C203.129684,177.894608,201.719116,176.583694,199.765503,175.710831C197.416046,174.661087,191.419357,174.824249,189.172363,175.999054C185.69664,177.816284,184.582718,180.301788,184.589371,186.225113C184.599548,195.295364,187.487015,198.345963,195.872665,198.145828C198.474243,198.08374,199.539154,197.901138,200.634567,197.329315zM192.510651,194.005386C191.204758,193.603699,189.94574,192.474594,189.501846,191.307068C189.319717,190.828064,189.170975,188.660782,189.171265,186.490845C189.171906,181.879562,189.677292,180.440109,191.639862,179.459702C193.496063,178.53241,196.8582,178.625504,198.372681,179.646103C200.20192,180.87883,200.447189,181.690643,200.453003,186.531342C200.458694,191.284775,200.147217,192.380493,198.479614,193.473145C197.374863,194.196991,194.086746,194.490204,192.510651,194.005386z"/>
    <path transform="matrix(1,0,0,-1,0,0)" style="stroke:none;fill:#000000;fill-rule:evenodd" d="M79.823288,188.542038L79.823288,179.194595L84.58519,179.194595L89.347092,179.194595L89.347092,177.254562L89.347092,175.314529L82.468781,175.314529L75.590477,175.314529L75.590477,186.602005L75.590477,197.889481L77.706879,197.889481L79.823288,197.889481L79.823288,188.542038z"/>
    <path transform="matrix(1,0,0,-1,0,0)" style="stroke:none;fill:#000000;fill-rule:evenodd" d="M97.812698,186.602005L97.812698,175.314529L95.519928,175.314529L93.227165,175.314529L93.227165,186.602005L93.227165,197.889481L95.519928,197.889481L97.812698,197.889481L97.812698,186.602005z"/>
    <path transform="matrix(1,0,0,-1,0,0)" style="stroke:none;fill:#000000;fill-rule:evenodd" d="M129.270355,194.12912C129.097229,188.314865,128.733215,188.718414,134.150986,188.718414L138.729797,188.718414L138.729797,193.30394L138.729797,197.889481L140.846207,197.889481L142.962616,197.889481L142.962616,186.602005L142.962616,175.314529L140.846207,175.314529L138.729797,175.314529L138.729797,179.90007L138.729797,184.485611L133.989487,184.485611L129.249161,184.485611L129.254364,179.988251L129.259552,175.490891L127.116379,175.38588L124.97319,175.280869L124.97319,186.585175L124.97319,197.889481L127.17778,197.890244L129.382355,197.890976L129.270355,194.12912z"/>
    <path transform="matrix(1,0,0,-1,0,0)" style="stroke:none;fill:#000000;fill-rule:evenodd" d="M163.06897,196.037628L163.069504,194.185776L159.982544,194.185776L156.895584,194.185776L156.801651,184.750153L156.707703,175.314529L154.602814,175.314529L152.49794,175.314529L152.403992,184.750153L152.310059,194.185776L149.223083,194.185776L146.136139,194.185776L146.136673,196.037628L146.137207,197.889481L154.602814,197.889481L163.068436,197.889481L163.06897,196.037628z"/>
    <path transform="matrix(1,0,0,-1,0,0)" style="stroke:none;fill:#000000;fill-rule:evenodd" d="M223.88327,197.184021C225.744217,196.224777,226.317505,195.033325,226.488846,191.76889C226.583694,189.961563,226.476715,188.298798,226.214432,187.504074C225.695129,185.930557,224.119873,184.242004,222.881241,183.931122C222.382782,183.806015,221.974945,183.626358,221.974945,183.531891C221.974945,183.328476,225.375824,178.364853,226.746094,176.568344L227.702423,175.314529L225.159775,175.314529C222.258987,175.314529,222.379379,175.22612,219.636139,179.370972C217.162888,183.107864,216.800461,183.427399,215.035156,183.427399L213.509338,183.427399L213.509338,179.370972L213.509338,175.314529L211.216568,175.314529L208.923813,175.314529L208.923813,186.622574L208.923813,197.930603L215.890289,197.821854C221.223236,197.738602,223.097488,197.58905,223.88327,197.184021zM213.583786,190.922989L213.685715,187.836578L217.124191,187.735626C219.018555,187.680008,220.867111,187.797607,221.24057,187.997467C222.086411,188.450134,222.819885,190.583817,222.52861,191.744354C222.045639,193.668686,221.243988,194.009415,217.19931,194.009415L213.481873,194.009415L213.583786,190.922989z"/>
    <path transform="matrix(1,0,0,-1,0,0)" style="stroke:none;fill:#000000;fill-rule:evenodd" d="M247.37178,195.93425L247.37178,193.979019L241.639847,194.028656L235.907928,194.078278L235.804916,191.398361L235.701904,188.718414L240.654999,188.718414L245.608109,188.718414L245.608109,186.954742L245.608109,185.191071L240.66983,185.191071L235.731567,185.191071L235.731567,182.192841L235.731567,179.194595L241.551666,179.194595L247.37178,179.194595L247.37178,177.254562L247.37178,175.314529L239.435272,175.314529L231.498764,175.314529L231.498764,186.602005L231.498764,197.889481L239.435272,197.889481L247.37178,197.889481L247.37178,195.93425z"/>
    <path transform="matrix(1,0,0,-1,0,0)" style="stroke:none;fill:#000000;fill-rule:evenodd" d="M264.615601,197.258957C264.801208,196.91217,266.300537,193.062943,267.94751,188.70517C269.594421,184.347366,271.418396,179.551743,272.000763,178.048218L273.059631,175.314529L270.689178,175.314529L268.318726,175.314529L267.395508,178.048218L266.47229,180.781906L261.726044,180.879761L256.979797,180.977615L255.973724,178.146072L254.967651,175.314529L252.757019,175.314529C251.541153,175.314529,250.546387,175.397552,250.546387,175.499039C250.546387,175.60051,251.679184,178.656067,253.06369,182.289154C254.448242,185.922241,256.115326,190.323349,256.768372,192.069382C257.421417,193.815414,258.217499,195.839218,258.537415,196.566727L259.119141,197.889481L261.698669,197.889481C263.814972,197.889481,264.338776,197.77626,264.615601,197.258957zM261.31192,192.333923C260.017334,189.067871,258.753235,185.214661,258.921204,185.046677C259.340942,184.626968,264.655731,184.822296,264.655731,185.257446C264.655731,186.005005,262.098694,192.951218,261.823486,192.951218C261.676697,192.951218,261.446503,192.673447,261.31192,192.333923z"/>
    <path transform="matrix(1,0,0,-1,0,0)" style="stroke:none;fill:#000000;fill-rule:evenodd" d="M280.176025,189.647827C280.176025,182.03685,280.228149,181.339828,280.857483,180.539749C282.074463,178.992645,285.395325,178.405746,287.635681,179.341843C290.210083,180.417511,290.216797,180.443085,290.335205,189.63652L290.441528,197.889481L292.5625,197.889481L294.683533,197.889481L294.572632,189.335693C294.467163,181.203659,294.421448,180.703201,293.645142,179.185715C292.131958,176.227798,288.657471,174.744904,283.982239,175.06163C280.66217,175.286545,278.727905,176.246262,277.193451,178.430084L276.119568,179.958328L275.943207,188.924316L275.766846,197.890305L277.971436,197.889893L280.176025,197.889481L280.176025,189.647827z"/>
    <path transform="matrix(1,0,0,-1,0,0)" style="stroke:none;fill:#000000;fill-rule:evenodd" d="M314.594299,197.221024C316.623047,196.299591,317.213196,194.887909,317.212524,190.95787C317.212097,188.690338,317.043213,187.500809,316.595215,186.609039C316.047729,185.519348,314.385254,184.072113,313.243958,183.691681C312.861328,183.564133,313.701782,182.229889,317.354309,177.166382L318.690186,175.314529L316.085999,175.314529L313.481812,175.314529L310.646057,179.459152L307.810303,183.603775L305.986084,183.710388L304.161926,183.817001L304.161926,179.565765L304.161926,175.314529L302.045471,175.314529L299.929077,175.314529L299.929077,186.602005L299.929077,197.889481L306.542847,197.881729C312.215576,197.875107,313.361206,197.781082,314.594299,197.221024zM304.161926,190.834808L304.161926,187.660202L308.016357,187.660202C311.800415,187.660202,311.884827,187.677933,312.636597,188.630219C313.248718,189.405624,313.370605,189.934067,313.244202,191.264023C312.994263,193.893417,312.78009,194.009415,308.175171,194.009415L304.161926,194.009415L304.161926,190.834808z"/>
    <path transform="matrix(1,0,0,-1,0,0)" style="stroke:none;fill:#000000;fill-rule:evenodd" d="M336.101624,195.332169C336.630127,193.925644,338.088684,190.076431,339.342896,186.778366C340.597107,183.480316,342.072266,179.551743,342.621033,178.048218L343.618774,175.314529L341.422791,175.314529L339.226746,175.314529L338.200684,178.136398L337.174622,180.958267L332.369568,180.958267L327.564453,180.958267L326.582092,178.136398L325.599792,175.314529L323.522827,175.314529C322.380493,175.314529,321.445862,175.468491,321.445862,175.656647C321.445862,175.844818,322.803955,179.614655,324.463928,184.034073C326.12384,188.453491,327.970398,193.378906,328.567444,194.979431L329.652893,197.889481L332.396851,197.889481L335.140808,197.889481L336.101624,195.332169zM332.067322,192.211212C331.148804,189.968933,329.558716,185.526276,329.558716,185.202454C329.558716,184.980682,330.730835,184.838333,332.556946,184.838333C334.216248,184.838333,335.555176,184.988052,335.555176,185.173569C335.555176,185.743378,333.072876,192.399994,332.73407,192.738831C332.542969,192.929947,332.27478,192.717712,332.067322,192.211212z"/>
    <path transform="matrix(1,0,0,-1,0,0)" style="stroke:none;fill:#000000;fill-rule:evenodd" d="M203.191879,164.93689C203.630966,164.952377,203.985535,164.755417,203.985535,164.495972C203.985535,164.238068,204.232986,164.027054,204.535461,164.027054C204.837921,164.027054,204.997559,163.884964,204.890213,163.711288C204.782867,163.537613,204.939148,163.301834,205.237503,163.187347C205.535828,163.072861,215.177795,162.938766,226.664047,162.889359C238.150299,162.839951,251.754486,162.714584,256.895569,162.610794C262.424622,162.499176,254.643723,162.388641,237.847961,162.340225C208.067047,162.254379,204.69101,162.149445,204.69101,161.309723C204.69101,161.035324,204.531143,160.909607,204.33577,161.03035C204.140396,161.151108,203.885315,161.00174,203.768936,160.698441C203.652542,160.395142,203.266907,160.146988,202.911942,160.146988C202.447037,160.146988,202.228302,159.826385,202.129745,159.000595L201.99292,157.854218L201.710571,159.000595C201.452927,160.046646,201.142365,160.316635,200.35112,160.182449C199.964417,160.116867,199.047256,161.066666,199.047256,161.532715C199.047256,161.763962,198.020416,161.927765,196.401764,161.954742C194.946732,161.978989,193.597519,162.038513,193.403519,162.087021C193.209518,162.135529,181.820633,162.224976,168.094879,162.285812C146.403732,162.381927,144.592529,162.427658,154.250092,162.635315C160.361206,162.766724,172.504059,162.89769,181.234207,162.926361C196.742737,162.977295,198.888397,163.075256,198.493378,163.714417C198.3871,163.886368,198.626999,164.027054,199.026443,164.027054C199.434311,164.027054,199.752731,164.257187,199.752731,164.552002C199.752731,164.882263,200.03862,165.045776,200.523621,164.99292C201.1521,164.924408,201.362122,165.16951,201.660583,166.319824L202.026672,167.730759L202.212463,166.319824C202.368423,165.1353,202.525589,164.913391,203.191879,164.93689z"/>
</svg>
