<?xml version="1.0" encoding="UTF-8" standalone="no"?>
<svg xmlns="http://www.w3.org/2000/svg" xmlns:xlink="http://www.w3.org/1999/xlink" width="73.937mm" height="72.764mm" viewBox="104.798737 -346.372314 73.937469 72.764343">
    <path transform="matrix(1,0,0,-1,0,0)" style="stroke:none;fill:#000000;fill-rule:evenodd" d="M151.711639,305.802429C149.285126,303.58374,145.365829,299.93634,143.00209,297.697174L138.704407,293.625916L137.772461,294.594086C135.972916,296.463593,132.724243,299.377167,132.342102,299.464294C132.12973,299.512695,131.955994,299.599365,131.955994,299.65683C131.955994,299.714294,134.459503,302.032471,137.519348,304.808289L143.082703,309.855255L149.603088,309.845856L156.123489,309.836426L151.711639,305.802429z"/>
    <path transform="matrix(1,0,0,-1,0,0)" style="stroke:none;fill:#000000;fill-rule:evenodd" d="M178.708206,317.089874C178.653198,307.46759,178.61734,306.316681,178.341873,305.336975C177.94632,303.930084,176.777863,301.695374,175.84967,300.570587C175.446838,300.082428,173.226257,298.128601,170.915009,296.22876C168.60379,294.328888,163.296265,289.945679,159.120514,286.48822C145.141205,274.913635,144.794418,274.634949,143.721344,274.112213C143.058792,273.789429,142.445709,273.607971,142.017975,273.607971L141.349716,273.607971L141.349716,277.461945C141.349716,279.581635,141.305389,282.566406,141.251221,284.094788L141.15274,286.873627L143.770447,289.295837C146.735474,292.039398,151.632904,296.377014,158.258759,302.128082C160.74791,304.288605,163.150055,306.487915,163.596863,307.015442C165.196716,308.904297,166.061646,311.849548,165.883408,314.801361C165.772614,316.635956,165.566132,317.53244,165.188812,317.816925C165.009888,317.951813,160.74353,317.952942,147.813324,317.821533C138.387268,317.725708,129.995026,317.670288,129.16391,317.698303L127.652802,317.749298L131.384247,320.929535C133.436554,322.67865,136.005524,324.895142,137.093063,325.855011L139.070419,327.60025L158.613235,327.64035C169.361786,327.662415,178.294006,327.697632,178.462616,327.718597C178.755463,327.755005,178.766464,327.278992,178.708206,317.089874z"/>
    <path transform="matrix(1,0,0,-1,0,0)" style="stroke:none;fill:#000000;fill-rule:evenodd" d="M176.021118,345.725769C174.017059,344.099213,165.600388,337.065796,164.234299,335.876099L162.600784,334.453491L157.52597,334.402161C154.734833,334.373901,152.451218,334.355133,152.451279,334.360474C152.451874,334.413147,159.016418,340.238647,160.059937,341.112549C160.815933,341.745636,162.424515,343.101471,163.634583,344.125488L165.834686,345.987335L169.348038,346.071106C171.280396,346.117157,173.706833,346.16748,174.740143,346.182922L176.618896,346.210938L176.021118,345.725769z"/>
    <path transform="matrix(1,0,0,-1,0,0)" style="stroke:none;fill:#000000;fill-rule:evenodd" d="M146.302765,340.402679L139.727173,334.433044L132.980759,334.425293C125.500343,334.416687,124.351807,334.317261,122.464119,333.514771C121.151237,332.956665,119.555649,331.63446,118.932281,330.588074C117.889114,328.837036,117.883865,328.781769,117.890144,319.611145C117.896484,310.341766,117.908142,310.224426,119.013626,308.302429C119.653931,307.189148,123.512451,303.615356,132.169495,296.117371L137.592224,291.420654L137.592224,283.134918C137.592224,278.470734,137.526566,274.849182,137.442001,274.849182C137.359375,274.849182,135.725922,276.228119,133.812103,277.913483C131.898285,279.598846,129.102936,282.02417,127.600204,283.303131C126.097496,284.582062,123.984138,286.398224,122.903854,287.33905C121.82357,288.279877,118.084488,291.50705,114.594765,294.510529C111.105042,297.514038,107.981049,300.271027,107.652557,300.637207C106.372704,302.063843,105.337204,304.273315,104.977325,306.345459C104.73761,307.725616,104.739937,330.696411,104.97998,332.651978C105.317429,335.401123,106.185593,337.467346,107.870644,339.531891C110.030197,342.177765,112.43174,343.858582,115.594505,344.937744C118.647545,345.979523,117.847687,345.933105,135.273254,346.079102C144.002136,346.152222,151.211334,346.231323,151.293701,346.254822C151.376099,346.278381,151.766327,346.314453,152.160934,346.334961L152.878387,346.372314L146.302765,340.402679z"/>
</svg>
