<?xml version="1.0" encoding="UTF-8" standalone="no"?>
<svg xmlns="http://www.w3.org/2000/svg" xmlns:xlink="http://www.w3.org/1999/xlink" width="165.000mm" height="165.000mm" viewBox="134.617126 -361.051331 165.000000 165.000000">
    <path transform="matrix(1,0,0,-1,0,0)" style="stroke:none;fill:#000000;fill-rule:evenodd" d="M299.617126,278.551331C299.617126,232.987839,262.680603,196.051331,217.117126,196.051331C171.553635,196.051331,134.617126,232.987839,134.617126,278.551331C134.617126,324.114807,171.553635,361.051331,217.117126,361.051331C262.680603,361.051331,299.617126,324.114807,299.617126,278.551331zM291.953796,278.551331C291.953796,237.220184,258.448273,203.714661,217.117126,203.714661C175.78598,203.714661,142.280457,237.220184,142.280457,278.551331C142.280457,319.882477,175.78598,353.388,217.117126,353.388C258.448273,353.388,291.953796,319.882477,291.953796,278.551331zM224.57048,218.402344C224.57048,214.278931,221.227783,210.936234,217.10437,210.936234C212.980957,210.936234,209.63826,214.278931,209.63826,218.402344C209.63826,222.525757,212.980957,225.868454,217.10437,225.868454C221.227783,225.868454,224.57048,222.525757,224.57048,218.402344zM221.60437,218.402344C221.60437,215.917068,219.589645,213.902344,217.10437,213.902344C214.619095,213.902344,212.60437,215.917068,212.60437,218.402344C212.60437,220.887619,214.619095,222.902344,217.10437,222.902344C219.589645,222.902344,221.60437,220.887619,221.60437,218.402344zM182.266769,235.661316C182.266769,231.498581,178.892212,228.124023,174.729477,228.124023C170.566742,228.124023,167.192184,231.498581,167.192184,235.661316C167.192184,239.824051,170.566742,243.198608,174.729477,243.198608C178.892212,243.198608,182.266769,239.824051,182.266769,235.661316zM178.729477,235.661316C178.729477,233.452179,176.938614,231.661316,174.729477,231.661316C172.52034,231.661316,170.729477,233.452179,170.729477,235.661316C170.729477,237.870453,172.52034,239.661316,174.729477,239.661316C176.938614,239.661316,178.729477,237.870453,178.729477,235.661316zM225.034409,339.188416C225.034409,334.966705,221.612045,331.544373,217.39035,331.544373C213.168655,331.544373,209.746292,334.966705,209.746292,339.188416C209.746292,343.410126,213.168655,346.832458,217.39035,346.832458C221.612045,346.832458,225.034409,343.410126,225.034409,339.188416zM221.39035,339.188416C221.39035,336.979279,219.599487,335.188416,217.39035,335.188416C215.181213,335.188416,213.39035,336.979279,213.39035,339.188416C213.39035,341.397552,215.181213,343.188416,217.39035,343.188416C219.599487,343.188416,221.39035,341.397552,221.39035,339.188416zM182.317902,321.074982C182.317902,316.813904,178.863617,313.359619,174.602539,313.359619C170.341461,313.359619,166.887177,316.813904,166.887177,321.074982C166.887177,325.33606,170.341461,328.790344,174.602539,328.790344C178.863617,328.790344,182.317902,325.33606,182.317902,321.074982zM178.602539,321.074982C178.602539,318.865845,176.811676,317.074982,174.602539,317.074982C172.393402,317.074982,170.602539,318.865845,170.602539,321.074982C170.602539,323.284119,172.393402,325.074982,174.602539,325.074982C176.811676,325.074982,178.602539,323.284119,178.602539,321.074982zM285.367493,278.617004C285.367493,274.347382,281.90625,270.886169,277.636627,270.886169C273.367004,270.886169,269.905762,274.347382,269.905762,278.617004C269.905762,282.886627,273.367004,286.347839,277.636627,286.347839C281.90625,286.347839,285.367493,282.886627,285.367493,278.617004zM282.188202,278.617004C282.188202,276.103241,280.150391,274.06543,277.636627,274.06543C275.122864,274.06543,273.085052,276.103241,273.085052,278.617004C273.085052,281.130768,275.122864,283.168579,277.636627,283.168579C280.150391,283.168579,282.188202,281.130768,282.188202,278.617004zM164.593231,278.416138C164.593231,274.123169,161.113083,270.643005,156.820099,270.643005C152.527115,270.643005,149.046967,274.123169,149.046967,278.416138C149.046967,282.709106,152.527115,286.18927,156.820099,286.18927C161.113083,286.18927,164.593231,282.709106,164.593231,278.416138zM160.820099,278.416138C160.820099,276.207001,159.029236,274.416138,156.820099,274.416138C154.610962,274.416138,152.820099,276.207001,152.820099,278.416138C152.820099,280.625275,154.610962,282.416138,156.820099,282.416138C159.029236,282.416138,160.820099,280.625275,160.820099,278.416138zM267.666626,235.939178C267.666626,231.624512,264.168884,228.12677,259.854218,228.12677C255.539551,228.12677,252.041809,231.624512,252.041809,235.939178C252.041809,240.253845,255.539551,243.751587,259.854218,243.751587C264.168884,243.751587,267.666626,240.253845,267.666626,235.939178zM264.354218,235.939178C264.354218,233.453903,262.339508,231.439178,259.854218,231.439178C257.368927,231.439178,255.354218,233.453903,255.354218,235.939178C255.354218,238.424454,257.368927,240.439178,259.854218,240.439178C262.339508,240.439178,264.354218,238.424454,264.354218,235.939178zM267.947357,321.523712C267.947357,317.100037,264.361267,313.513947,259.937592,313.513947C255.513916,313.513947,251.927826,317.100037,251.927826,321.523712C251.927826,325.947388,255.513916,329.533478,259.937592,329.533478C264.361267,329.533478,267.947357,325.947388,267.947357,321.523712zM264.437592,321.523712C264.437592,319.038422,262.422882,317.023712,259.937592,317.023712C257.452301,317.023712,255.437592,319.038422,255.437592,321.523712C255.437592,324.009003,257.452301,326.023712,259.937592,326.023712C262.422882,326.023712,264.437592,324.009003,264.437592,321.523712zM261.548584,278.683075C261.548584,254.130005,241.644363,234.2258,217.091293,234.2258C192.538223,234.2258,172.634018,254.130005,172.634018,278.683075C172.634018,303.236145,192.538223,323.14035,217.091293,323.14035C241.644363,323.14035,261.548584,303.236145,261.548584,278.683075z"/>
</svg>
